<svg id="Layer_1" data-name="Layer 1" xmlns="http://www.w3.org/2000/svg" viewBox="0 0 346 311"><defs><style>.cls-1{fill:#cdcdcd;}</style></defs><path class="cls-1" d="M207,46.31,184.35,23.64a7.5,7.5,0,0,0-10.61,10.61l10.53,10.53H51.48L62,34.25a7.5,7.5,0,0,0-10.6-10.61l-24,24a7.5,7.5,0,0,0,0,10.61L50.07,80.91a7.5,7.5,0,0,0,10.61-10.6L50.15,59.78H182.94L172.41,70.31A7.5,7.5,0,1,0,183,80.91l24-24A7.49,7.49,0,0,0,207,46.31Z"/><path class="cls-1" d="M184.6,291.32a4,4,0,0,1-2.27-.71c-3.49-2.41-85.61-59.2-97-75.7-4.73-6.88-7.37-18.6-3.25-27.67,2.11-4.67,6.87-10.49,17.56-11.75,8.86-1,19.11,6.74,28.25,14.92-11.29-25.48-27.7-67.08-30.27-86.57-1.34-10.19,2.77-18.13,11.27-21.79,6.35-2.73,12.94-3,18.56-.75a17.66,17.66,0,0,1,9.82,9.41c3.18,7.47,13.06,34.21,19.81,52.62a20.24,20.24,0,0,1,2.78-5.31,16.7,16.7,0,0,1,11.94-6.63,17.88,17.88,0,0,1,17.83,7.15c3.76-5,9.85-9.54,18.58-9,6.74.42,10.92,4.75,13.2,9,6.53-3.68,16.83-5.85,27,2.12,14.67,11.48,22.51,36.59,21,67.16-1.17,23.18-2.87,28.14-4.51,32.94a39.88,39.88,0,0,0-1.18,3.92,51.79,51.79,0,0,1-4.9,12.44l6,10.44a4,4,0,1,1-6.94,4L249.55,257l1.32-2a44.9,44.9,0,0,0,5.1-12.11,48.11,48.11,0,0,1,1.39-4.64c1.4-4.08,3-8.7,4.09-30.76,1.41-28-5.28-50.58-17.91-60.46-10.75-8.42-20.2-.2-21.24.77L217,152.6l-1.38-7c-.07-.29-1.66-7.64-7.88-8-10.74-.67-14.47,10.93-14.62,11.43l-3.44,12.27-4.29-12.57C183,138,174.84,139,173.23,139.28l-.38.05a8.73,8.73,0,0,0-6.52,3.46c-4,5.39-5.24,15.2-4.55,18.75l.6,11c-.22-.59-27.62-67.38-32.42-78.65a9.57,9.57,0,0,0-5.44-5.12c-3.57-1.43-8.1-1.19-12.41.67-5.2,2.23-7.11,6.71-6.51,13.39,1.81,20.08,39.52,112.78,39.89,113.56h0c-9.81-11.85-35.26-34-44.87-32.91-5.6.65-9.37,3-11.21,7.1-2.76,6.08-.86,14.86,2.56,19.84,8.73,12.7,71.46,57.46,94.9,73.64a4,4,0,0,1-2.27,7.3Z"/></svg>